<svg xmlns="http://www.w3.org/2000/svg" width="83.586" height="69.542" viewBox="0 0 83.586 69.542">
  <g id="right-arrow" transform="translate(0 -41.345)">
    <g id="Group_23" data-name="Group 23" transform="translate(0 41.345)">
      <path id="Path_2" data-name="Path 2" d="M82.25,72.868,52.071,42.68a4.588,4.588,0,0,0-6.47,0l-2.757,2.74a4.541,4.541,0,0,0-1.336,3.234,4.629,4.629,0,0,0,1.336,3.274l17.621,17.66H4.515A4.464,4.464,0,0,0,0,74.077v3.876a4.636,4.636,0,0,0,4.515,4.7H60.662L42.843,100.4a4.53,4.53,0,0,0,0,6.424l2.74,2.733a4.59,4.59,0,0,0,6.47,0l30.2-30.192A4.614,4.614,0,0,0,82.25,72.868Z" transform="translate(0 -41.345)" fill="#fcfcfc"/>
    </g>
  </g>
</svg>
